<svg xmlns="http://www.w3.org/2000/svg" viewBox="0 0 32 40" x="0px" y="0px"><g data-name="22-folder"><path d="M31,11V30a1,1,0,0,1-1,1H27.82A2.77,2.77,0,0,0,28,30V10h2A1,1,0,0,1,31,11ZM4,30V10H2a1,1,0,0,0-1,1V30a1,1,0,0,0,1,1H4.18A2.77,2.77,0,0,1,4,30ZM26,2V30a1,1,0,0,1-1,1H21V23a1,1,0,0,0-1-1H12a1,1,0,0,0-1,1v8H7a1,1,0,0,1-1-1V2A1,1,0,0,1,7,1H25A1,1,0,0,1,26,2ZM20,9a1,1,0,0,0-1-1H17V6a1,1,0,0,0-2,0V8H13a1,1,0,0,0,0,2h2v2a1,1,0,0,0,2,0V10h2A1,1,0,0,0,20,9Z"/></g><text x="0" y="47" fill="#000000" font-size="5px" font-weight="bold" font-family="'Helvetica Neue', Helvetica, Arial-Unicode, Arial, Sans-serif">Created by zakiaalfitry</text><text x="0" y="52" fill="#000000" font-size="5px" font-weight="bold" font-family="'Helvetica Neue', Helvetica, Arial-Unicode, Arial, Sans-serif">from the Noun Project</text></svg>